<?xml version="1.0" encoding="UTF-8"?>
<!DOCTYPE svg PUBLIC "-//W3C//DTD SVG 1.1//EN" "http://www.w3.org/Graphics/SVG/1.1/DTD/svg11.dtd">
<!-- Creator: CorelDRAW X8 -->
<svg xmlns="http://www.w3.org/2000/svg" xml:space="preserve" width="1920px" height="652px" version="1.1" style="shape-rendering:geometricPrecision; text-rendering:geometricPrecision; image-rendering:optimizeQuality; fill-rule:evenodd; clip-rule:evenodd"
viewBox="0 0 1920 652"
 xmlns:xlink="http://www.w3.org/1999/xlink">
 <defs>
  <style type="text/css">
   <![CDATA[
    .str0 {stroke:#79D2F6;stroke-width:0.9}
    .fil0 {fill:#68CEF5}
    .fil1 {fill:#4B4B4D;fill-rule:nonzero}
   ]]>
  </style>
 </defs>
 <g id="Camada_x0020_1">
  <metadata id="CorelCorpID_0Corel-Layer"/>
  <rect class="fil0 str0" x="1" y="1" width="1920" height="648"/>
  <path class="fil1" d="M369 298l-83 0c-5,0 -9,-2 -12,-5 -4,-2 -5,-6 -5,-11l0 -115c0,-4 1,-7 5,-10 3,-3 7,-5 12,-5l83 0c5,0 9,2 12,5 3,3 5,6 5,10l0 115c0,5 -2,9 -5,11 -3,3 -7,5 -12,5zm-66 -31l49 0 0 -84 -49 0 0 84z"/>
  <path id="1" class="fil1" d="M509 298l-33 -50 -25 0 0 50 -34 0 0 -146 99 0c5,0 9,2 12,5 4,3 5,6 5,10l0 65c0,5 -1,8 -5,11 -3,3 -7,5 -12,5l33 50 -40 0zm-58 -81l48 0 0 -34 -48 0 0 34z"/>
  <path id="2" class="fil1" d="M643 201l0 -18 -49 0 0 84 49 0 0 -19 -21 0 0 -31 55 0 0 31 0 34c0,5 -2,8 -5,11 -4,3 -8,5 -12,5l-83 0c-5,0 -9,-2 -12,-5 -4,-3 -5,-6 -5,-11l0 -115c0,-4 1,-8 5,-11 3,-3 7,-4 12,-4l83 0c4,0 8,1 12,4 3,3 5,7 5,11l0 34 -34 0z"/>
  <path id="3" class="fil1" d="M799 298l-11 -35 -54 0 -12 35 -35 0 47 -146 53 0 47 146 -35 0zm-38 -115l-17 49 33 0 -16 -49z"/>
  <polygon id="4" class="fil1" points="979,152 979,298 949,298 883,199 883,298 849,298 849,152 898,152 944,222 944,152 "/>
  <polygon id="5" class="fil1" points="1045,298 1011,298 1011,152 1045,152 "/>
  <polygon id="6" class="fil1" points="1073,152 1178,152 1178,179 1117,267 1178,267 1178,298 1073,298 1073,266 1132,183 1073,183 "/>
  <path id="7" class="fil1" d="M1304 298l-11 -35 -54 0 -12 35 -35 0 48 -146 52 0 48 146 -36 0zm-38 -115l-17 49 33 0 -16 -49z"/>
  <path id="8" class="fil1" d="M1450 152c5,0 9,2 12,5 3,3 5,6 5,11l0 114c0,5 -2,9 -5,11 -3,3 -7,5 -12,5l-98 0 0 -146 98 0zm-17 31l-47 0 0 84 47 0 0 -84z"/>
  <path id="9" class="fil1" d="M1598 298l-83 0c-5,0 -9,-2 -12,-5 -3,-2 -5,-6 -5,-11l0 -115c0,-4 2,-7 5,-10 3,-3 7,-5 12,-5l83 0c5,0 9,2 12,5 4,3 5,6 5,10l0 115c0,5 -1,9 -5,11 -3,3 -7,5 -12,5zm-66 -31l49 0 0 -84 -49 0 0 84z"/>
  <path id="10" class="fil1" d="M1739 298l-34 -50 -24 0 0 50 -35 0 0 -146 99 0c5,0 9,2 13,5 3,3 5,6 5,10l0 65c0,5 -2,8 -5,11 -4,3 -8,5 -13,5l34 50 -40 0zm-58 -81l47 0 0 -34 -47 0 0 34z"/>
  <path id="11" class="fil1" d="M647 385c5,0 9,1 12,4 3,3 5,7 5,11l0 65c0,4 -2,8 -5,11 -3,3 -7,4 -12,4l-65 0 0 50 -35 0 0 -145 100 0zm-17 31l-48 0 0 33 48 0 0 -33z"/>
  <polygon id="12" class="fil1" points="802,416 727,416 727,443 768,443 768,473 727,473 727,500 802,500 802,530 693,530 693,385 802,385 "/>
  <path id="13" class="fil1" d="M914 530l-85 0 0 -31 68 0 0 -27 -51 0c-5,0 -9,-1 -12,-4 -4,-3 -5,-7 -5,-12l0 -57c0,-4 1,-7 5,-10 3,-3 7,-5 12,-5l85 0 0 31 -68 0 0 26 51 0c5,0 9,1 12,4 4,3 5,7 5,11l0 59c0,4 -1,8 -5,11 -3,3 -7,4 -12,4z"/>
  <path id="14" class="fil1" d="M1044 530l-85 0 0 -31 68 0 0 -27 -51 0c-5,0 -9,-1 -12,-4 -4,-3 -5,-7 -5,-12l0 -57c0,-4 1,-7 5,-10 3,-3 7,-5 12,-5l85 0 0 31 -68 0 0 26 51 0c5,0 9,1 12,4 4,3 5,7 5,11l0 59c0,4 -1,8 -5,11 -3,3 -7,4 -12,4z"/>
  <path id="15" class="fil1" d="M1192 530l-83 0c-5,0 -9,-1 -12,-4 -4,-3 -5,-6 -5,-11l0 -115c0,-4 1,-8 5,-11 3,-3 7,-4 12,-4l83 0c5,0 9,1 12,4 3,3 5,7 5,11l0 115c0,5 -2,8 -5,11 -3,3 -7,4 -12,4zm-66 -31l49 0 0 -83 -49 0 0 83z"/>
  <path id="16" class="fil1" d="M1341 530l-12 -34 -54 0 -11 34 -36 0 48 -145 52 0 48 145 -35 0zm-39 -114l-16 49 33 0 -17 -49z"/>
  <polygon id="17" class="fil1" points="1423,385 1423,499 1487,499 1487,530 1388,530 1388,385 "/>
 </g>
</svg>
